<svg width="10" height="10" viewBox="0 0 10 10" fill="none" xmlns="http://www.w3.org/2000/svg">
<g clip-path="url(#clip0_880_355)">
<path fill-rule="evenodd" clip-rule="evenodd" d="M3 8C3.55228 8 4 8.44772 4 9C4 9.55228 3.55228 10 3 10C2.44771 10 2 9.55228 2 9C2 8.44772 2.44771 8 3 8ZM7 8C7.55228 8 8 8.44772 8 9C8 9.55228 7.55228 10 7 10C6.44772 10 6 9.55228 6 9C6 8.44772 6.44772 8 7 8ZM3 4C3.55228 4 4 4.44772 4 5C4 5.55228 3.55228 6 3 6C2.44771 6 2 5.55228 2 5C2 4.44772 2.44771 4 3 4ZM7 4C7.55228 4 8 4.44772 8 5C8 5.55228 7.55228 6 7 6C6.44772 6 6 5.55228 6 5C6 4.44772 6.44772 4 7 4ZM3 0C3.55228 0 4 0.447715 4 1C4 1.55228 3.55228 2 3 2C2.44771 2 2 1.55228 2 1C2 0.447715 2.44771 0 3 0ZM7 0C7.55228 0 8 0.447715 8 1C8 1.55228 7.55228 2 7 2C6.44772 2 6 1.55228 6 1C6 0.447715 6.44772 0 7 0Z" fill="#4D4F69"/>
</g>
<defs>
<clipPath id="clip0_880_355">
<rect width="6" height="10" fill="white" transform="translate(2)"/>
</clipPath>
</defs>
</svg>
