<svg width="14" height="14" viewBox="0 0 14 14" fill="none" xmlns="http://www.w3.org/2000/svg">
<path d="M9.62566 6.125C11.5587 6.125 13.1257 7.692 13.1257 9.625C13.1257 11.558 11.5587 13.125 9.62566 13.125C7.69271 13.125 6.1257 11.558 6.1257 9.625C6.1257 7.692 7.69271 6.125 9.62566 6.125ZM9.40333 0.875C11.2155 0.875 12.6846 2.34406 12.6846 4.15625V4.58991C12.6846 4.95234 12.3908 5.24616 12.0283 5.24616C11.6659 5.24616 11.3721 4.95234 11.3721 4.58991V4.15625C11.3721 3.06894 10.4906 2.1875 9.40333 2.1875H4.15332C3.06601 2.1875 2.18457 3.06894 2.18457 4.15625V9.59919C2.18457 10.6865 3.06601 11.5679 4.15332 11.5679H5.2965C5.65895 11.5679 5.95275 11.8617 5.95275 12.2242C5.95275 12.5866 5.65895 12.8804 5.2965 12.8804H4.15332C2.34114 12.8804 0.87207 11.4113 0.87207 9.59919V4.15625C0.87207 2.34406 2.34114 0.875 4.15332 0.875H9.40333ZM9.62566 7.22302L9.53668 7.22901C9.24548 7.26852 9.01491 7.49903 8.97545 7.79022L8.96941 7.87927V8.96954L7.8764 8.96875L7.78734 8.97461C7.49611 9.01381 7.26535 9.24411 7.22554 9.53523L7.21945 9.6243L7.22535 9.71338C7.26455 10.0046 7.49481 10.2353 7.78597 10.2751L7.87501 10.2813L8.96941 10.282V11.3782L8.97545 11.4672C9.01491 11.7584 9.24548 11.9889 9.53668 12.0285L9.62566 12.0344L9.71474 12.0285C10.0059 11.9889 10.2364 11.7584 10.276 11.4672L10.2819 11.3782V10.2838L11.375 10.2849L11.464 10.2791C11.7553 10.2399 11.9861 10.0096 12.0259 9.71845L12.0319 9.62938L12.0261 9.54039C11.9869 9.2491 11.7566 9.01836 11.4654 8.97855L11.3764 8.97243L10.2819 8.97129V7.87927L10.276 7.79022C10.2364 7.49903 10.0059 7.26852 9.71474 7.22901L9.62566 7.22302Z" fill="#858699"/>
</svg>
