<svg width="16" height="16" viewBox="0 0 16 16" fill="none" xmlns="http://www.w3.org/2000/svg">
<path fill-rule="evenodd" clip-rule="evenodd" d="M10.1946 3.80482C9.93426 3.54447 9.93426 3.12236 10.1946 2.86201C10.455 2.60166 10.8771 2.60166 11.1374 2.86201L14.4645 6.18909C14.4907 6.21461 14.5148 6.24227 14.5365 6.27179C14.6179 6.38232 14.666 6.51888 14.666 6.66667C14.666 6.74458 14.6527 6.81937 14.6281 6.88887C14.596 6.9799 14.5436 7.06535 14.4708 7.13815L11.1374 10.4715C10.8771 10.7318 10.455 10.7318 10.1946 10.4715C9.93426 10.2111 9.93426 9.78903 10.1946 9.52868L12.39 7.33333H8.66602C5.35221 7.33333 2.66601 10.0195 2.66601 13.3333V14C2.66601 14.3682 2.36754 14.6667 1.99935 14.6667C1.63116 14.6667 1.33268 14.3682 1.33268 14V13.3333C1.33268 9.28314 4.61583 6 8.66602 6H12.3898L10.1946 3.80482Z" fill="#858699"/>
</svg>
