<svg width="48" height="48" viewBox="0 0 48 48" fill="none" xmlns="http://www.w3.org/2000/svg">
<path d="M14.25 6.00021C8.03679 6.00021 3 11.037 3 17.2502V33.7501C3 39.9634 8.03679 45.0001 14.25 45.0001H30.7503C36.9636 45.0001 42.0003 39.9634 42.0003 33.7501V24.0002C42.0003 22.7576 40.9929 21.7502 39.7503 21.7502C38.5077 21.7502 37.5003 22.7576 37.5003 24.0002V33.7501C37.5003 37.4782 34.4781 40.5001 30.7503 40.5001H14.25C10.5221 40.5001 7.5 37.4782 7.5 33.7501V17.2502C7.5 13.5223 10.5221 10.5002 14.25 10.5002H21C22.2426 10.5002 23.25 9.49284 23.25 8.25021C23.25 7.00758 22.2426 6.00021 21 6.00021H14.25Z" fill="#4D4F69"/>
<path d="M36.4017 15.5838L32.1591 11.3412L19.5844 23.9159C17.3155 26.1847 15.769 29.0743 15.1398 32.2207C15.0943 32.4481 15.2948 32.6485 15.5223 32.6032C18.6685 31.9738 21.5582 30.4273 23.827 28.1585L36.4017 15.5838Z" fill="#4D4F69"/>
<path d="M40.3676 4.37037C39.7988 4.18068 39.1712 4.32879 38.7473 4.75293L35.3408 8.15922L39.5834 12.4019L42.9899 8.99556C43.4141 8.57142 43.562 7.94406 43.3724 7.37502C42.8996 5.95641 41.7863 4.84323 40.3676 4.37037Z" fill="#4D4F69"/>
</svg>
