<svg width="14" height="15" viewBox="0 0 14 15" fill="none" xmlns="http://www.w3.org/2000/svg">
<path d="M1.16699 3.41667C1.16699 3.10725 1.28991 2.8105 1.5087 2.59171C1.72749 2.37292 2.02424 2.25 2.33366 2.25H5.55366C5.72852 2.25002 5.90114 2.28935 6.05876 2.36508C6.21638 2.44081 6.35495 2.551 6.46424 2.6875L7.28091 3.70833H11.667C11.9764 3.70833 12.2732 3.83125 12.492 4.05004C12.7107 4.26883 12.8337 4.56558 12.8337 4.875V11.5833C12.8337 11.8928 12.7107 12.1895 12.492 12.4083C12.2732 12.6271 11.9764 12.75 11.667 12.75H2.33366C2.02424 12.75 1.72749 12.6271 1.5087 12.4083C1.28991 12.1895 1.16699 11.8928 1.16699 11.5833V3.41667Z" fill="#00B2BF"/>
</svg>
