<svg width="12" height="12" viewBox="0 0 12 12" fill="none" xmlns="http://www.w3.org/2000/svg">
<path fill-rule="evenodd" clip-rule="evenodd" d="M3.74099 2.00007C4.08007 1.99955 4.38189 1.99908 4.65983 2.11419C4.93778 2.22932 5.15094 2.44313 5.39043 2.68336C5.40667 2.69965 5.42304 2.71607 5.43956 2.73259L5.76756 3.06059C6.08602 3.37905 6.15215 3.433 6.22238 3.46201C6.2934 3.49134 6.37892 3.50014 6.8285 3.50014L7.53295 3.50014C7.97626 3.50011 8.35813 3.50009 8.66392 3.54123C8.99173 3.58533 9.30574 3.68478 9.56056 3.93959C9.81537 4.1944 9.91481 4.50841 9.95891 4.83623C10.0001 5.14202 10 5.52389 10 5.9672L10 7.00014H9V6.00014C9 5.51449 8.99894 5.20072 8.96784 4.96955C8.93869 4.75287 8.89164 4.68488 8.85345 4.64669C8.81526 4.60851 8.74728 4.56145 8.53059 4.5323C8.29943 4.5012 7.98565 4.50014 7.5 4.50014H6.8285C6.80522 4.50014 6.78212 4.50018 6.75919 4.50021C6.41943 4.50073 6.11883 4.50118 5.84062 4.38627C5.56251 4.2714 5.34974 4.0579 5.1114 3.81876C5.09456 3.80186 5.07758 3.78483 5.06045 3.76769L4.73245 3.43969C4.41445 3.1217 4.34737 3.06716 4.27718 3.03809C4.20696 3.00901 4.12098 3.00014 3.6715 3.00014H3.5C3.01435 3.00014 2.70058 3.0012 2.46942 3.0323C2.25273 3.06145 2.18474 3.10851 2.14656 3.14669C2.10837 3.18488 2.06131 3.25287 2.03216 3.46955C2.00107 3.70072 2 4.01449 2 4.50014V7.50014C2 7.98579 2.00107 8.29956 2.03216 8.53073C2.06131 8.74741 2.10837 8.8154 2.14656 8.85359C2.18474 8.89178 2.25273 8.93883 2.46942 8.96798C2.70058 8.99908 3.01435 9.00014 3.5 9.00014H7V10.0001L3.46705 10.0001C3.02374 10.0002 2.64187 10.0002 2.33609 9.95905C2.00828 9.91495 1.69426 9.81551 1.43945 9.56069C1.18464 9.30588 1.08519 8.99187 1.04109 8.66405C0.999955 8.35827 0.999976 7.9764 1 7.53309L1 4.50014C1 4.48912 1 4.47814 1 4.46719C0.999976 4.02389 0.999955 3.64201 1.04109 3.33623C1.08519 3.00841 1.18464 2.6944 1.43945 2.43959C1.69426 2.18478 2.00828 2.08533 2.33609 2.04123C2.64188 2.00009 3.02375 2.00011 3.46705 2.00014C3.478 2.00014 3.48898 2.00014 3.5 2.00014H3.6715C3.69484 2.00014 3.718 2.00011 3.74099 2.00007ZM9 10.0001V11.0001H10V10.0001H11V9.00014H10V8.00014H9V9.00014H8V10.0001H9Z" fill="#858699"/>
</svg>
