<svg width="16" height="16" viewBox="0 0 16 16" fill="none" xmlns="http://www.w3.org/2000/svg">
<path fill-rule="evenodd" clip-rule="evenodd" d="M1.91879 2.58579C2.29387 2.21071 2.80257 2 3.33301 2H7.99967C8.53011 2 9.03882 2.21071 9.41389 2.58579C9.78896 2.96086 9.99967 3.46957 9.99967 4V5.33333C9.99967 5.70152 9.7012 6 9.33301 6C8.96482 6 8.66634 5.70152 8.66634 5.33333V4C8.66634 3.82319 8.5961 3.65362 8.47108 3.5286C8.34605 3.40357 8.17649 3.33333 7.99967 3.33333H3.33301C3.1562 3.33333 2.98663 3.40357 2.8616 3.5286C2.73658 3.65362 2.66634 3.82319 2.66634 4V12C2.66634 12.1768 2.73658 12.3464 2.8616 12.4714C2.98663 12.5964 3.1562 12.6667 3.33301 12.6667H7.99967C8.17649 12.6667 8.34605 12.5964 8.47108 12.4714C8.5961 12.3464 8.66634 12.1768 8.66634 12V10.6667C8.66634 10.2985 8.96482 10 9.33301 10C9.7012 10 9.99967 10.2985 9.99967 10.6667V12C9.99967 12.5304 9.78896 13.0391 9.41389 13.4142C9.03882 13.7893 8.53011 14 7.99967 14H3.33301C2.80257 14 2.29387 13.7893 1.91879 13.4142C1.54372 13.0391 1.33301 12.5304 1.33301 12V4C1.33301 3.46957 1.54372 2.96086 1.91879 2.58579ZM11.5283 5.52851C11.7886 5.26816 12.2107 5.26816 12.4711 5.52851L14.4711 7.52851C14.4728 7.53028 14.4746 7.53204 14.4763 7.53382C14.589 7.64907 14.6537 7.79834 14.6647 7.95291C14.6678 7.99694 14.6666 8.04141 14.6608 8.08564C14.6446 8.21146 14.5925 8.33355 14.5045 8.43534C14.4927 8.44905 14.4804 8.46223 14.4675 8.47488L12.4711 10.4713C12.2107 10.7317 11.7886 10.7317 11.5283 10.4713C11.2679 10.211 11.2679 9.78886 11.5283 9.52851L12.3902 8.66659H5.99967C5.63148 8.66659 5.33301 8.36811 5.33301 7.99992C5.33301 7.63173 5.63148 7.33325 5.99967 7.33325H12.3902L11.5283 6.47132C11.2679 6.21097 11.2679 5.78886 11.5283 5.52851Z" fill="#858699"/>
</svg>
