<svg width="16" height="16" viewBox="0 0 16 16" fill="none" xmlns="http://www.w3.org/2000/svg">
<path d="M5 13.0001L4.99998 1.00015L1.40251 3.04572C1.15509 3.17508 1 3.43117 1 3.71037V14.2502C1 14.5204 1.14535 14.7697 1.38048 14.9028C1.61562 15.036 1.90419 15.0323 2.13588 14.8933L5 13.0001Z" fill="#858699"/>
<path d="M6 1.00015V13.0001L9.99998 15.0001V3.00206L6 1.00015Z" fill="#858699"/>
<path d="M14.6935 12.105L11 15.0001V3.00206L13.8641 1.10694C14.0958 0.967923 14.3844 0.964282 14.6195 1.09741C14.8547 1.23054 15 1.47986 15 1.75006V11.5002C15 11.7391 14.8862 11.9637 14.6935 12.105Z" fill="#858699"/>
</svg>
