<svg width="16" height="17" viewBox="0 0 16 17" fill="none" xmlns="http://www.w3.org/2000/svg">
<path fill-rule="evenodd" clip-rule="evenodd" d="M11.111 1.5H4.89L4.683 1.505C2.631 1.611 1 3.281 1 5.326V11.674L1.005 11.877C1.113 13.896 2.81 15.5 4.89 15.5H5.15L5.255 15.493C5.43974 15.4693 5.60964 15.3794 5.7332 15.2401C5.85676 15.1007 5.92561 14.9213 5.927 14.735C5.92622 14.6336 5.90547 14.5334 5.86595 14.44C5.82642 14.3467 5.7689 14.262 5.69665 14.1909C5.62441 14.1197 5.53886 14.0635 5.44489 14.0255C5.35093 13.9874 5.25038 13.9682 5.149 13.969H4.889L4.73 13.964C3.516 13.884 2.557 12.889 2.557 11.674V5.326L2.562 5.169C2.644 3.975 3.655 3.031 4.89 3.031H11.112L11.272 3.036C12.486 3.116 13.452 4.111 13.452 5.326V5.43C13.479 5.61479 13.5719 5.78359 13.7136 5.90525C13.8553 6.02691 14.0362 6.09324 14.223 6.092C14.653 6.092 15.001 5.749 15.001 5.326L14.996 5.123C14.887 3.104 13.19 1.5 11.11 1.5H11.111ZM14.968 10.403C14.9944 10.3511 15.005 10.2926 14.9982 10.2347C14.9914 10.1769 14.9677 10.1224 14.93 10.078L12.905 7.616C12.8755 7.58117 12.839 7.55292 12.7979 7.53308C12.7568 7.51325 12.712 7.50227 12.6663 7.50085C12.6207 7.49944 12.5753 7.50762 12.533 7.52487C12.4908 7.54213 12.4526 7.56806 12.421 7.601L10.107 10.062C10.0544 10.1181 10.0251 10.1921 10.025 10.269C10.025 10.439 10.167 10.577 10.343 10.577H11.465C11.31 14.36 8.306 14.882 8.267 14.889C8.19372 14.8995 8.12657 14.9357 8.07763 14.9913C8.02869 15.0468 8.00116 15.118 8 15.192V15.217C8.013 15.377 8.152 15.501 8.318 15.5C8.372 15.5 13.623 15.442 13.836 10.577H14.681C14.7403 10.5774 14.7985 10.5614 14.8491 10.5306C14.8998 10.4999 14.941 10.4557 14.968 10.403Z" fill="#858699"/>
</svg>
