<svg width="14" height="14" viewBox="0 0 14 14" fill="none" xmlns="http://www.w3.org/2000/svg">
<path d="M6.99963 1.48387C5.53669 1.48387 4.13368 2.06502 3.09922 3.09947C2.06477 4.13392 1.48363 5.53694 1.48363 6.99987C1.48363 8.4628 2.06477 9.86582 3.09922 10.9003C4.13368 11.9347 5.53669 12.5159 6.99963 12.5159C8.46256 12.5159 9.86558 11.9347 10.9 10.9003C11.9345 9.86582 12.5156 8.4628 12.5156 6.99987C12.5156 5.53694 11.9345 4.13392 10.9 3.09947C9.86558 2.06502 8.46256 1.48387 6.99963 1.48387ZM0.265625 6.99987C0.265625 5.2139 0.975098 3.50108 2.23797 2.23821C3.50084 0.975342 5.21366 0.265869 6.99963 0.265869C8.78559 0.265869 10.4984 0.975342 11.7613 2.23821C13.0242 3.50108 13.7336 5.2139 13.7336 6.99987C13.7336 8.78584 13.0242 10.4987 11.7613 11.7615C10.4984 13.0244 8.78559 13.7339 6.99963 13.7339C5.21366 13.7339 3.50084 13.0244 2.23797 11.7615C0.975098 10.4987 0.265625 8.78584 0.265625 6.99987Z" fill="#858699"/>
<path d="M7.06967 4.34512C6.92961 4.33552 6.78907 4.35483 6.65679 4.40186C6.5245 4.44888 6.40331 4.52261 6.30072 4.61846C6.19815 4.71431 6.11638 4.83023 6.0605 4.95903C6.00462 5.08782 5.97584 5.22673 5.97592 5.36712C5.97592 5.52875 5.91172 5.68377 5.79743 5.79806C5.68313 5.91235 5.52812 5.97656 5.36649 5.97656C5.20485 5.97656 5.04984 5.91235 4.93555 5.79806C4.82126 5.68377 4.75705 5.52875 4.75705 5.36712C4.75696 4.95594 4.86992 4.55266 5.08358 4.20134C5.29723 3.85003 5.60336 3.56423 5.96849 3.37516C6.33363 3.1861 6.74371 3.10106 7.15392 3.12934C7.56412 3.15762 7.95865 3.29813 8.29439 3.53551C8.63012 3.77289 8.89413 4.09801 9.05756 4.47531C9.22098 4.85262 9.27753 5.26759 9.22102 5.67487C9.16451 6.08215 8.99712 6.46605 8.73714 6.78461C8.47716 7.10316 8.13461 7.34412 7.74692 7.48112C7.70658 7.49559 7.67171 7.5222 7.64711 7.5573C7.62251 7.5924 7.60939 7.63426 7.60955 7.67712V8.22487C7.60955 8.38651 7.54534 8.54152 7.43105 8.65581C7.31676 8.7701 7.16175 8.83431 7.00011 8.83431C6.83848 8.83431 6.68347 8.7701 6.56918 8.65581C6.45488 8.54152 6.39068 8.38651 6.39068 8.22487V7.67712C6.39059 7.38222 6.48193 7.09454 6.6521 6.85369C6.82228 6.61284 7.06293 6.43067 7.34093 6.33225C7.56276 6.25363 7.75073 6.10098 7.8732 5.89999C7.99566 5.69901 8.04514 5.46197 8.01329 5.22878C7.98144 4.99559 7.87022 4.78049 7.69836 4.6197C7.52649 4.45892 7.30447 4.36138 7.06967 4.34512Z" fill="#858699"/>
<path d="M7.04346 10.1245C7.00192 10.1245 6.96208 10.141 6.93271 10.1704C6.90333 10.1997 6.88683 10.2396 6.88683 10.2811C6.88683 10.3227 6.90333 10.3625 6.93271 10.3919C6.96208 10.4212 7.00192 10.4377 7.04346 10.4377C7.085 10.4377 7.12484 10.4212 7.15421 10.3919C7.18358 10.3625 7.20008 10.3227 7.20008 10.2811C7.20008 10.2396 7.18358 10.1997 7.15421 10.1704C7.12484 10.141 7.085 10.1245 7.04346 10.1245ZM7.04346 10.9374C7.12964 10.9374 7.21497 10.9204 7.29459 10.8874C7.37421 10.8544 7.44656 10.8061 7.5075 10.7452C7.56843 10.6842 7.61677 10.6119 7.64975 10.5323C7.68273 10.4526 7.69971 10.3673 7.69971 10.2811C7.69971 10.1949 7.68273 10.1096 7.64975 10.03C7.61677 9.95036 7.56843 9.87802 7.5075 9.81708C7.44656 9.75614 7.37421 9.7078 7.29459 9.67482C7.21497 9.64184 7.12964 9.62487 7.04346 9.62487C6.86941 9.62487 6.70249 9.69401 6.57942 9.81708C6.45635 9.94015 6.38721 10.1071 6.38721 10.2811C6.38721 10.4552 6.45635 10.6221 6.57942 10.7452C6.70249 10.8682 6.86941 10.9374 7.04346 10.9374Z" fill="#858699"/>
</svg>
