<svg width="14" height="14" viewBox="0 0 14 14" fill="none" xmlns="http://www.w3.org/2000/svg">
<path d="M3.5 12.25C3.03587 12.25 2.59075 12.0656 2.26256 11.7374C1.93437 11.4092 1.75 10.9641 1.75 10.5V3.5C1.75 3.03587 1.93437 2.59075 2.26256 2.26256C2.59075 1.93437 3.03587 1.75 3.5 1.75H10.5C10.9641 1.75 11.4092 1.93437 11.7374 2.26256C12.0656 2.59075 12.25 3.03587 12.25 3.5V10.5C12.25 10.9641 12.0656 11.4092 11.7374 11.7374C11.4092 12.0656 10.9641 12.25 10.5 12.25H3.5ZM10.5 2.91667H5.83333V11.0833H10.5C10.6547 11.0833 10.8031 11.0219 10.9125 10.9125C11.0219 10.8031 11.0833 10.6547 11.0833 10.5V3.5C11.0833 3.34529 11.0219 3.19692 10.9125 3.08752C10.8031 2.97812 10.6547 2.91667 10.5 2.91667Z" fill="#858699"/>
</svg>
