<svg width="12" height="13" viewBox="0 0 12 13" fill="none" xmlns="http://www.w3.org/2000/svg">
<path d="M2.25 5.375C2.54837 5.375 2.83452 5.49353 3.0455 5.7045C3.25647 5.91548 3.375 6.20163 3.375 6.5C3.375 6.79837 3.25647 7.08452 3.0455 7.2955C2.83452 7.50647 2.54837 7.625 2.25 7.625C1.95163 7.625 1.66548 7.50647 1.4545 7.2955C1.24353 7.08452 1.125 6.79837 1.125 6.5C1.125 6.20163 1.24353 5.91548 1.4545 5.7045C1.66548 5.49353 1.95163 5.375 2.25 5.375ZM6 5.375C6.29837 5.375 6.58452 5.49353 6.7955 5.7045C7.00647 5.91548 7.125 6.20163 7.125 6.5C7.125 6.79837 7.00647 7.08452 6.7955 7.2955C6.58452 7.50647 6.29837 7.625 6 7.625C5.70163 7.625 5.41548 7.50647 5.2045 7.2955C4.99353 7.08452 4.875 6.79837 4.875 6.5C4.875 6.20163 4.99353 5.91548 5.2045 5.7045C5.41548 5.49353 5.70163 5.375 6 5.375ZM9.75 5.375C10.0484 5.375 10.3345 5.49353 10.5455 5.7045C10.7565 5.91548 10.875 6.20163 10.875 6.5C10.875 6.79837 10.7565 7.08452 10.5455 7.2955C10.3345 7.50647 10.0484 7.625 9.75 7.625C9.45163 7.625 9.16548 7.50647 8.9545 7.2955C8.74353 7.08452 8.625 6.79837 8.625 6.5C8.625 6.20163 8.74353 5.91548 8.9545 5.7045C9.16548 5.49353 9.45163 5.375 9.75 5.375Z" fill="#858699"/>
</svg>
