<svg width="16" height="17" viewBox="0 0 16 17" fill="none" xmlns="http://www.w3.org/2000/svg">
<path fill-rule="evenodd" clip-rule="evenodd" d="M6.47173 4.97132C6.73208 4.71097 6.73208 4.28886 6.47173 4.02851C6.21138 3.76816 5.78927 3.76816 5.52892 4.02851L2.86225 6.69518C2.78943 6.768 2.73698 6.85348 2.70489 6.94454C2.68035 7.01402 2.66699 7.08878 2.66699 7.16667C2.66699 7.27509 2.69287 7.37747 2.7388 7.46795C2.75521 7.50033 2.77443 7.53165 2.79647 7.56155C2.8182 7.59106 2.84231 7.61872 2.86851 7.64424L5.52892 10.3047C5.78927 10.565 6.21138 10.565 6.47173 10.3047C6.73208 10.0443 6.73208 9.6222 6.47173 9.36185L4.94322 7.83333H10.667C11.1974 7.83333 11.7061 8.04405 12.0812 8.41912C12.4563 8.79419 12.667 9.3029 12.667 9.83333C12.667 10.3638 12.4563 10.8725 12.0812 11.2475C11.7061 11.6226 11.1974 11.8333 10.667 11.8333H10.0003C9.63214 11.8333 9.33366 12.1318 9.33366 12.5C9.33366 12.8682 9.63214 13.1667 10.0003 13.1667H10.667C11.551 13.1667 12.3989 12.8155 13.024 12.1904C13.6491 11.5652 14.0003 10.7174 14.0003 9.83333C14.0003 8.94928 13.6491 8.10143 13.024 7.47631C12.3989 6.85119 11.551 6.5 10.667 6.5H4.94305L6.47173 4.97132Z" fill="#858699"/>
</svg>
