<svg width="16" height="17" viewBox="0 0 16 17" fill="none" xmlns="http://www.w3.org/2000/svg">
<path fill-rule="evenodd" clip-rule="evenodd" d="M8 15.5C9.85652 15.5 11.637 14.7625 12.9497 13.4497C14.2625 12.137 15 10.3565 15 8.5C15 6.64348 14.2625 4.86301 12.9497 3.55025C11.637 2.2375 9.85652 1.5 8 1.5C6.14348 1.5 4.36301 2.2375 3.05025 3.55025C1.7375 4.86301 1 6.64348 1 8.5C1 10.3565 1.7375 12.137 3.05025 13.4497C4.36301 14.7625 6.14348 15.5 8 15.5ZM5.121 11.379L4.111 12.389C3.34179 11.6198 2.81794 10.6398 2.6057 9.57291C2.39346 8.50601 2.50236 7.40013 2.91864 6.39512C3.33491 5.39012 4.03986 4.53112 4.94434 3.92676C5.84881 3.3224 6.91219 2.99983 8 2.99983C9.08781 2.99983 10.1512 3.3224 11.0557 3.92676C11.9601 4.53112 12.6651 5.39012 13.0814 6.39512C13.4976 7.40013 13.6065 8.50601 13.3943 9.57291C13.1821 10.6398 12.6582 11.6198 11.889 12.389L10.879 11.379C10.6004 11.1003 10.2696 10.8792 9.90545 10.7284C9.54135 10.5776 9.1511 10.5 8.757 10.5H7.243C6.8489 10.5 6.45865 10.5776 6.09455 10.7284C5.73045 10.8792 5.39963 11.1003 5.121 11.379Z" fill="#858699"/>
<path d="M8 4.5C7.46957 4.5 6.96086 4.71071 6.58579 5.08579C6.21071 5.46086 6 5.96957 6 6.5V7C6 7.53043 6.21071 8.03914 6.58579 8.41421C6.96086 8.78929 7.46957 9 8 9C8.53043 9 9.03914 8.78929 9.41421 8.41421C9.78929 8.03914 10 7.53043 10 7V6.5C10 5.96957 9.78929 5.46086 9.41421 5.08579C9.03914 4.71071 8.53043 4.5 8 4.5Z" fill="#858699"/>
</svg>
