<svg width="243" height="152" viewBox="0 0 243 152" fill="none" xmlns="http://www.w3.org/2000/svg">
<g clip-path="url(#clip0_287_7203)">
<path d="M144.431 0H121.927C121.027 0 120.196 0.47625 119.747 1.25L95.8404 42.375C94.8713 44.0412 96.0821 46.125 98.0203 46.125H115.353C117.291 46.125 118.502 48.2088 117.533 49.875L96.3879 86.25C95.4188 87.9162 96.6296 90 98.5677 90H121.072C121.972 90 122.803 89.5238 123.252 88.75L147.158 47.625C148.127 45.9588 146.917 43.875 144.978 43.875H127.646C125.707 43.875 124.497 41.7912 125.466 40.125L146.611 3.75C147.58 2.08375 146.369 0 144.431 0Z" fill="white"/>
</g>
<path d="M28.9258 122.723C28.418 122.475 27.7474 122.195 26.9141 121.883C26.0807 121.57 25.1367 121.277 24.082 121.004C23.0273 120.717 21.8815 120.483 20.6445 120.301C19.4076 120.105 18.138 120.008 16.8359 120.008C15.7943 120.008 14.9023 120.04 14.1602 120.105C13.431 120.171 12.8125 120.255 12.3047 120.359C11.8099 120.464 11.4128 120.587 11.1133 120.73C10.8268 120.861 10.6055 120.997 10.4492 121.141C10.293 121.284 10.1888 121.427 10.1367 121.57C10.0977 121.714 10.0781 121.844 10.0781 121.961C10.0781 122.352 10.2734 122.697 10.6641 122.996C11.0547 123.283 11.5885 123.543 12.2656 123.777C12.9427 123.999 13.7305 124.214 14.6289 124.422C15.5273 124.617 16.4779 124.826 17.4805 125.047C18.4961 125.255 19.5378 125.49 20.6055 125.75C21.6862 125.997 22.7279 126.29 23.7305 126.629C24.7461 126.967 25.7031 127.365 26.6016 127.82C27.5 128.263 28.2878 128.784 28.9648 129.383C29.6419 129.982 30.1758 130.672 30.5664 131.453C30.957 132.234 31.1523 133.126 31.1523 134.129C31.1523 135.418 30.9245 136.525 30.4688 137.449C30.013 138.374 29.401 139.155 28.6328 139.793C27.8776 140.431 26.9987 140.945 25.9961 141.336C24.9935 141.714 23.9388 142.007 22.832 142.215C21.7383 142.423 20.625 142.56 19.4922 142.625C18.3724 142.69 17.3047 142.723 16.2891 142.723C13.6328 142.723 11.1719 142.501 8.90625 142.059C6.65365 141.629 4.66146 141.089 2.92969 140.438V134.031C4.71354 135.021 6.74479 135.796 9.02344 136.355C11.3151 136.915 13.763 137.195 16.3672 137.195C17.9036 137.195 19.1536 137.117 20.1172 136.961C21.0938 136.792 21.8555 136.583 22.4023 136.336C22.9492 136.076 23.3203 135.796 23.5156 135.496C23.7109 135.197 23.8086 134.91 23.8086 134.637C23.8086 134.207 23.6133 133.836 23.2227 133.523C22.832 133.198 22.2982 132.918 21.6211 132.684C20.944 132.436 20.1562 132.215 19.2578 132.02C18.3594 131.811 17.4023 131.609 16.3867 131.414C15.3841 131.206 14.349 130.984 13.2812 130.75C12.2135 130.516 11.1719 130.242 10.1562 129.93C9.15365 129.604 8.20312 129.233 7.30469 128.816C6.40625 128.387 5.61849 127.885 4.94141 127.312C4.26432 126.727 3.73047 126.056 3.33984 125.301C2.94922 124.533 2.75391 123.647 2.75391 122.645C2.75391 121.46 2.96224 120.438 3.37891 119.578C3.79557 118.719 4.35547 117.99 5.05859 117.391C5.77474 116.779 6.59505 116.284 7.51953 115.906C8.45703 115.529 9.4401 115.236 10.4688 115.027C11.4974 114.819 12.5391 114.676 13.5938 114.598C14.6484 114.52 15.651 114.48 16.6016 114.48C17.6432 114.48 18.7109 114.533 19.8047 114.637C20.9115 114.741 21.9987 114.891 23.0664 115.086C24.1341 115.268 25.1628 115.483 26.1523 115.73C27.1549 115.978 28.0794 116.238 28.9258 116.512V122.723ZM51.4664 121.004V142H44.2203V121.004H32.8336V115.164H62.8727V121.004H51.4664ZM86.0773 136.922H71.1164L68.5969 142H60.5109L74.5539 115.164H82.6398L96.6828 142H88.5969L86.0773 136.922ZM73.7141 131.688H83.5187L78.6359 121.805L73.7141 131.688ZM106.723 115.164V118.113C107.361 117.71 108.052 117.293 108.794 116.863C109.549 116.434 110.363 116.043 111.235 115.691C112.121 115.34 113.065 115.053 114.067 114.832C115.083 114.598 116.177 114.48 117.348 114.48C118.494 114.48 119.497 114.604 120.356 114.852C121.216 115.086 121.958 115.398 122.583 115.789C123.221 116.167 123.761 116.596 124.204 117.078C124.647 117.547 125.031 118.016 125.356 118.484C126.281 117.885 127.192 117.339 128.091 116.844C128.989 116.349 129.894 115.926 130.805 115.574C131.717 115.223 132.648 114.956 133.598 114.773C134.549 114.578 135.539 114.48 136.567 114.48C138.208 114.48 139.673 114.708 140.962 115.164C142.264 115.62 143.364 116.245 144.262 117.039C145.161 117.833 145.845 118.771 146.313 119.852C146.795 120.919 147.036 122.065 147.036 123.289V142H139.79V124.324C139.79 123.608 139.679 122.99 139.458 122.469C139.236 121.948 138.937 121.525 138.559 121.199C138.195 120.874 137.759 120.633 137.251 120.477C136.756 120.32 136.229 120.242 135.669 120.242C133.065 120.242 130.096 121.414 126.762 123.758C126.802 123.979 126.828 124.24 126.841 124.539C126.867 124.839 126.88 125.138 126.88 125.438V142H119.634V124.168C119.634 123.452 119.523 122.846 119.302 122.352C119.08 121.844 118.774 121.434 118.384 121.121C118.006 120.809 117.563 120.587 117.055 120.457C116.561 120.314 116.033 120.242 115.473 120.242C114.796 120.242 114.08 120.34 113.325 120.535C112.583 120.73 111.828 121.004 111.059 121.355C110.304 121.707 109.555 122.124 108.813 122.605C108.084 123.087 107.387 123.608 106.723 124.168V142H99.4773V115.164H106.723ZM153.737 142V115.164H160.983V142H153.737ZM193.367 142V126.961C193.367 125.958 193.283 125.053 193.113 124.246C192.944 123.426 192.625 122.729 192.156 122.156C191.701 121.57 191.056 121.121 190.223 120.809C189.402 120.483 188.341 120.32 187.039 120.32C186.049 120.32 185.008 120.457 183.914 120.73C182.833 120.991 181.759 121.342 180.691 121.785C179.624 122.228 178.602 122.742 177.625 123.328C176.661 123.914 175.802 124.526 175.047 125.164V142H167.801V115.164H175.047V118.836C175.958 118.315 176.928 117.801 177.957 117.293C178.986 116.772 180.079 116.303 181.238 115.887C182.397 115.47 183.628 115.132 184.93 114.871C186.232 114.611 187.605 114.48 189.051 114.48C190.861 114.48 192.475 114.702 193.895 115.145C195.327 115.574 196.538 116.193 197.527 117C198.517 117.794 199.272 118.764 199.793 119.91C200.327 121.043 200.594 122.312 200.594 123.719V142H193.367ZM240.166 128.562C240.166 130.281 239.977 131.811 239.599 133.152C239.222 134.48 238.688 135.639 237.998 136.629C237.321 137.618 236.5 138.458 235.537 139.148C234.586 139.839 233.525 140.392 232.353 140.809C231.181 141.225 229.918 141.531 228.564 141.727C227.21 141.909 225.797 142 224.326 142H207.295V115.164H224.287C225.758 115.164 227.171 115.262 228.525 115.457C229.879 115.639 231.142 115.939 232.314 116.355C233.499 116.772 234.573 117.326 235.537 118.016C236.5 118.693 237.321 119.533 237.998 120.535C238.688 121.525 239.222 122.684 239.599 124.012C239.977 125.34 240.166 126.857 240.166 128.562ZM232.861 128.562C232.861 127.273 232.692 126.154 232.353 125.203C232.028 124.253 231.494 123.471 230.752 122.859C230.022 122.234 229.065 121.772 227.88 121.473C226.696 121.16 225.25 121.004 223.545 121.004H214.541V136.16H223.545C225.25 136.16 226.696 136.01 227.88 135.711C229.065 135.398 230.022 134.93 230.752 134.305C231.494 133.667 232.028 132.872 232.353 131.922C232.692 130.971 232.861 129.852 232.861 128.562Z" fill="white"/>
<defs>
<clipPath id="clip0_287_7203">
<rect width="52" height="90" fill="white" transform="translate(95.5)"/>
</clipPath>
</defs>
</svg>
