<svg width="293" height="45" viewBox="0 0 293 45" fill="none" xmlns="http://www.w3.org/2000/svg">
<g clip-path="url(#clip0_287_7199)">
<path d="M24.4655 0H13.2133C12.7634 0 12.3481 0.238125 12.1234 0.625L0.170217 21.1875C-0.314329 22.0206 0.291039 23.0625 1.26013 23.0625H9.92659C10.8957 23.0625 11.5011 24.1044 11.0165 24.9375L0.443954 43.125C-0.0405919 43.9581 0.564776 45 1.53387 45H12.786C13.236 45 13.6513 44.7619 13.876 44.375L25.8291 23.8125C26.3137 22.9794 25.7083 21.9375 24.7392 21.9375H16.0728C15.1037 21.9375 14.4983 20.8956 14.9829 20.0625L25.5554 1.875C26.04 1.04188 25.4346 0 24.4655 0Z" fill="white"/>
</g>
<path d="M78.9258 15.7227C78.418 15.4753 77.7474 15.1953 76.9141 14.8828C76.0807 14.5703 75.1367 14.2773 74.082 14.0039C73.0273 13.7174 71.8815 13.4831 70.6445 13.3008C69.4076 13.1055 68.138 13.0078 66.8359 13.0078C65.7943 13.0078 64.9023 13.0404 64.1602 13.1055C63.431 13.1706 62.8125 13.2552 62.3047 13.3594C61.8099 13.4635 61.4128 13.5872 61.1133 13.7305C60.8268 13.8607 60.6055 13.9974 60.4492 14.1406C60.293 14.2839 60.1888 14.4271 60.1367 14.5703C60.0977 14.7135 60.0781 14.8438 60.0781 14.9609C60.0781 15.3516 60.2734 15.6966 60.6641 15.9961C61.0547 16.2826 61.5885 16.543 62.2656 16.7773C62.9427 16.9987 63.7305 17.2135 64.6289 17.4219C65.5273 17.6172 66.4779 17.8255 67.4805 18.0469C68.4961 18.2552 69.5378 18.4896 70.6055 18.75C71.6862 18.9974 72.7279 19.2904 73.7305 19.6289C74.7461 19.9674 75.7031 20.3646 76.6016 20.8203C77.5 21.263 78.2878 21.7839 78.9648 22.3828C79.6419 22.9818 80.1758 23.6719 80.5664 24.4531C80.957 25.2344 81.1523 26.1263 81.1523 27.1289C81.1523 28.418 80.9245 29.5247 80.4688 30.4492C80.013 31.3737 79.401 32.1549 78.6328 32.793C77.8776 33.431 76.9987 33.9453 75.9961 34.3359C74.9935 34.7135 73.9388 35.0065 72.832 35.2148C71.7383 35.4232 70.625 35.5599 69.4922 35.625C68.3724 35.6901 67.3047 35.7227 66.2891 35.7227C63.6328 35.7227 61.1719 35.5013 58.9062 35.0586C56.6536 34.6289 54.6615 34.0885 52.9297 33.4375V27.0312C54.7135 28.0208 56.7448 28.7956 59.0234 29.3555C61.3151 29.9154 63.763 30.1953 66.3672 30.1953C67.9036 30.1953 69.1536 30.1172 70.1172 29.9609C71.0938 29.7917 71.8555 29.5833 72.4023 29.3359C72.9492 29.0755 73.3203 28.7956 73.5156 28.4961C73.7109 28.1966 73.8086 27.9102 73.8086 27.6367C73.8086 27.207 73.6133 26.8359 73.2227 26.5234C72.832 26.1979 72.2982 25.918 71.6211 25.6836C70.944 25.4362 70.1562 25.2148 69.2578 25.0195C68.3594 24.8112 67.4023 24.6094 66.3867 24.4141C65.3841 24.2057 64.349 23.9844 63.2812 23.75C62.2135 23.5156 61.1719 23.2422 60.1562 22.9297C59.1536 22.6042 58.2031 22.2331 57.3047 21.8164C56.4062 21.3867 55.6185 20.8854 54.9414 20.3125C54.2643 19.7266 53.7305 19.056 53.3398 18.3008C52.9492 17.5326 52.7539 16.6471 52.7539 15.6445C52.7539 14.4596 52.9622 13.4375 53.3789 12.5781C53.7956 11.7188 54.3555 10.9896 55.0586 10.3906C55.7747 9.77865 56.5951 9.28385 57.5195 8.90625C58.457 8.52865 59.4401 8.23568 60.4688 8.02734C61.4974 7.81901 62.5391 7.67578 63.5938 7.59766C64.6484 7.51953 65.651 7.48047 66.6016 7.48047C67.6432 7.48047 68.7109 7.53255 69.8047 7.63672C70.9115 7.74089 71.9987 7.89062 73.0664 8.08594C74.1341 8.26823 75.1628 8.48307 76.1523 8.73047C77.1549 8.97786 78.0794 9.23828 78.9258 9.51172V15.7227ZM101.466 14.0039V35H94.2203V14.0039H82.8336V8.16406H112.873V14.0039H101.466ZM136.077 29.9219H121.116L118.597 35H110.511L124.554 8.16406H132.64L146.683 35H138.597L136.077 29.9219ZM123.714 24.6875H133.519L128.636 14.8047L123.714 24.6875ZM156.723 8.16406V11.1133C157.361 10.7096 158.052 10.293 158.794 9.86328C159.549 9.43359 160.363 9.04297 161.235 8.69141C162.121 8.33984 163.065 8.05339 164.067 7.83203C165.083 7.59766 166.177 7.48047 167.348 7.48047C168.494 7.48047 169.497 7.60417 170.356 7.85156C171.216 8.08594 171.958 8.39844 172.583 8.78906C173.221 9.16667 173.761 9.59635 174.204 10.0781C174.647 10.5469 175.031 11.0156 175.356 11.4844C176.281 10.8854 177.192 10.3385 178.091 9.84375C178.989 9.34896 179.894 8.92578 180.805 8.57422C181.717 8.22266 182.648 7.95573 183.598 7.77344C184.549 7.57812 185.539 7.48047 186.567 7.48047C188.208 7.48047 189.673 7.70833 190.962 8.16406C192.264 8.61979 193.364 9.24479 194.262 10.0391C195.161 10.8333 195.845 11.7708 196.313 12.8516C196.795 13.9193 197.036 15.0651 197.036 16.2891V35H189.79V17.3242C189.79 16.6081 189.679 15.9896 189.458 15.4688C189.236 14.9479 188.937 14.5247 188.559 14.1992C188.195 13.8737 187.759 13.6328 187.251 13.4766C186.756 13.3203 186.229 13.2422 185.669 13.2422C183.065 13.2422 180.096 14.4141 176.762 16.7578C176.802 16.9792 176.828 17.2396 176.841 17.5391C176.867 17.8385 176.88 18.138 176.88 18.4375V35H169.634V17.168C169.634 16.4518 169.523 15.8464 169.302 15.3516C169.08 14.8438 168.774 14.4336 168.384 14.1211C168.006 13.8086 167.563 13.5872 167.055 13.457C166.561 13.3138 166.033 13.2422 165.473 13.2422C164.796 13.2422 164.08 13.3398 163.325 13.5352C162.583 13.7305 161.828 14.0039 161.059 14.3555C160.304 14.707 159.555 15.1237 158.813 15.6055C158.084 16.0872 157.387 16.6081 156.723 17.168V35H149.477V8.16406H156.723ZM203.737 35V8.16406H210.983V35H203.737ZM243.367 35V19.9609C243.367 18.9583 243.283 18.0534 243.113 17.2461C242.944 16.4258 242.625 15.7292 242.156 15.1562C241.701 14.5703 241.056 14.1211 240.223 13.8086C239.402 13.4831 238.341 13.3203 237.039 13.3203C236.049 13.3203 235.008 13.457 233.914 13.7305C232.833 13.9909 231.759 14.3424 230.691 14.7852C229.624 15.2279 228.602 15.7422 227.625 16.3281C226.661 16.9141 225.802 17.526 225.047 18.1641V35H217.801V8.16406H225.047V11.8359C225.958 11.3151 226.928 10.8008 227.957 10.293C228.986 9.77214 230.079 9.30339 231.238 8.88672C232.397 8.47005 233.628 8.13151 234.93 7.87109C236.232 7.61068 237.605 7.48047 239.051 7.48047C240.861 7.48047 242.475 7.70182 243.895 8.14453C245.327 8.57422 246.538 9.19271 247.527 10C248.517 10.7943 249.272 11.7643 249.793 12.9102C250.327 14.043 250.594 15.3125 250.594 16.7188V35H243.367ZM290.166 21.5625C290.166 23.2812 289.977 24.8112 289.599 26.1523C289.222 27.4805 288.688 28.6393 287.998 29.6289C287.321 30.6185 286.5 31.4583 285.537 32.1484C284.586 32.8385 283.525 33.3919 282.353 33.8086C281.181 34.2253 279.918 34.5312 278.564 34.7266C277.21 34.9089 275.797 35 274.326 35H257.295V8.16406H274.287C275.758 8.16406 277.171 8.26172 278.525 8.45703C279.879 8.63932 281.142 8.9388 282.314 9.35547C283.499 9.77214 284.573 10.3255 285.537 11.0156C286.5 11.6927 287.321 12.5326 287.998 13.5352C288.688 14.5247 289.222 15.6836 289.599 17.0117C289.977 18.3398 290.166 19.8568 290.166 21.5625ZM282.861 21.5625C282.861 20.2734 282.692 19.1536 282.353 18.2031C282.028 17.2526 281.494 16.4714 280.752 15.8594C280.022 15.2344 279.065 14.7721 277.88 14.4727C276.696 14.1602 275.25 14.0039 273.545 14.0039H264.541V29.1602H273.545C275.25 29.1602 276.696 29.0104 277.88 28.7109C279.065 28.3984 280.022 27.9297 280.752 27.3047C281.494 26.6667 282.028 25.8724 282.353 24.9219C282.692 23.9714 282.861 22.8516 282.861 21.5625Z" fill="white"/>
<defs>
<clipPath id="clip0_287_7199">
<rect width="26" height="45" fill="white"/>
</clipPath>
</defs>
</svg>
